# xmcd
#
# Track frame offsets:
# 150
# 16547
# 35100
# 59237
# 77935
# 97032
# 116995
# 133965
# 153415
# 171117
# 189630
# 212150
#
# Disc length: 3095 seconds
#
#
# Revision: 2
# Processed by: cddbd v1.5.1PL0 Copyright (c) Steve Scherf et al.
# Submitted via: FreeRIP 2.942 
#
DISCID=b30c150c
DTITLE=Ray Charles - strong love affair
DYEAR=1900
DGENRE=
TTITLE0=No Time To Waste Time
TTITLE1=Angelina
TTITLE2=Tell Me What You Want
TTITLE3=Strong Love Affair
TTITLE4=All She Wants To Do Is Love
TTITLE5=Out Of My Life
TTITLE6=The Fever
TTITLE7=Say No More
TTITLE8=Everybody's Handsome Child
TTITLE9=Separate Ways
TTITLE10=I Need A Good Woman Bad
TTITLE11=If You Give Me Your Heart
EXTD=
EXTT0=
EXTT1=
EXTT2=
EXTT3=
EXTT4=
EXTT5=
EXTT6=
EXTT7=
EXTT8=
EXTT9=
EXTT10=
EXTT11=
PLAYORDER=
